<svg xmlns="http://www.w3.org/2000/svg" width="106" height="21" viewBox="0 0 106 21" fill="none">
  <g clip-path="url(#clip0_160_2157)">
    <path d="M20.5205 0.5H0.833008V20.5H20.5205V0.5Z" fill="#219653"/>
    <path d="M41.8486 0.5H22.1611V20.5H41.8486V0.5Z" fill="#219653"/>
    <path d="M63.1768 0.5H43.4893V20.5H63.1768V0.5Z" fill="#219653"/>
    <path d="M84.5049 0.5H64.8174V20.5H84.5049V0.5Z" fill="#219653"/>
    <path d="M105.833 0.5H86.1455V20.5H105.833V0.5Z" fill="#219653"/>
    <path d="M10.6768 13.9789L13.6709 13.2081L14.9219 17.1248L10.6768 13.9789ZM17.5674 8.91642H12.2969L10.6768 3.87476L9.05664 8.91642H3.78613L8.05176 12.0414L6.43164 17.0831L10.6973 13.9581L13.3223 12.0414L17.5674 8.91642Z" fill="white"/>
    <path d="M32.0049 13.9789L34.999 13.2081L36.25 17.1248L32.0049 13.9789ZM38.8955 8.91642H33.625L32.0049 3.87476L30.3848 8.91642H25.1143L29.3799 12.0414L27.7598 17.0831L32.0254 13.9581L34.6504 12.0414L38.8955 8.91642Z" fill="white"/>
    <path d="M53.333 13.9789L56.3271 13.2081L57.5781 17.1248L53.333 13.9789ZM60.2236 8.91642H54.9531L53.333 3.87476L51.7129 8.91642H46.4424L50.708 12.0414L49.0879 17.0831L53.3535 13.9581L55.9785 12.0414L60.2236 8.91642Z" fill="white"/>
    <path d="M74.6611 13.9789L77.6553 13.2081L78.9063 17.1248L74.6611 13.9789ZM81.5518 8.91642H76.2812L74.6611 3.87476L73.041 8.91642H67.7705L72.0361 12.0414L70.416 17.0831L74.6816 13.9581L77.3066 12.0414L81.5518 8.91642Z" fill="white"/>
    <path d="M95.9893 13.9789L98.9834 13.2081L100.234 17.1248L95.9893 13.9789ZM102.88 8.91642H97.6094L95.9893 3.87476L94.3691 8.91642H89.0986L93.3643 12.0414L91.7441 17.0831L96.0098 13.9581L98.6348 12.0414L102.88 8.91642Z" fill="white"/>
  </g>
  <defs>
    <clipPath id="clip0_160_2157">
      <rect width="105" height="20" fill="white" transform="translate(0.833008 0.5)"/>
    </clipPath>
  </defs>
</svg>